<mxfile host="app.diagrams.net" modified="2023-11-24T15:47:01.992Z" agent="Mozilla/5.0 (Windows NT 10.0; Win64; x64) AppleWebKit/537.36 (KHTML, like Gecko) Chrome/118.0.0.0 Safari/537.36 OPR/104.0.0.0" etag="XC2_c4t3OWb4SWZLceii" version="22.1.3" type="device">
  <diagram name="Страница — 1" id="pfFUF8AEJEGxDf8J0Fbj">
    <mxGraphModel dx="1143" dy="706" grid="1" gridSize="10" guides="1" tooltips="1" connect="1" arrows="1" fold="1" page="1" pageScale="1" pageWidth="150" pageHeight="400" math="0" shadow="0">
      <root>
        <mxCell id="0" />
        <mxCell id="1" parent="0" />
        <mxCell id="NWe_6q7NGKQjCnyYTIsE-6" style="edgeStyle=orthogonalEdgeStyle;rounded=0;orthogonalLoop=1;jettySize=auto;html=1;entryX=0;entryY=0.5;entryDx=0;entryDy=0;" edge="1" parent="1" source="NWe_6q7NGKQjCnyYTIsE-1" target="NWe_6q7NGKQjCnyYTIsE-3">
          <mxGeometry relative="1" as="geometry" />
        </mxCell>
        <mxCell id="NWe_6q7NGKQjCnyYTIsE-1" value="START" style="ellipse;whiteSpace=wrap;html=1;" vertex="1" parent="1">
          <mxGeometry x="40" y="120" width="80" height="80" as="geometry" />
        </mxCell>
        <mxCell id="NWe_6q7NGKQjCnyYTIsE-7" style="edgeStyle=orthogonalEdgeStyle;rounded=0;orthogonalLoop=1;jettySize=auto;html=1;entryX=0;entryY=0.5;entryDx=0;entryDy=0;" edge="1" parent="1" source="NWe_6q7NGKQjCnyYTIsE-3" target="NWe_6q7NGKQjCnyYTIsE-4">
          <mxGeometry relative="1" as="geometry" />
        </mxCell>
        <mxCell id="NWe_6q7NGKQjCnyYTIsE-12" value="if (num_is_found == 0)&amp;nbsp;" style="edgeLabel;html=1;align=center;verticalAlign=middle;resizable=0;points=[];" vertex="1" connectable="0" parent="NWe_6q7NGKQjCnyYTIsE-7">
          <mxGeometry x="-0.1579" y="1" relative="1" as="geometry">
            <mxPoint x="12" y="11" as="offset" />
          </mxGeometry>
        </mxCell>
        <mxCell id="NWe_6q7NGKQjCnyYTIsE-10" style="edgeStyle=orthogonalEdgeStyle;rounded=0;orthogonalLoop=1;jettySize=auto;html=1;" edge="1" parent="1" source="NWe_6q7NGKQjCnyYTIsE-3" target="NWe_6q7NGKQjCnyYTIsE-5">
          <mxGeometry relative="1" as="geometry">
            <Array as="points">
              <mxPoint x="375" y="360" />
              <mxPoint x="630" y="360" />
            </Array>
          </mxGeometry>
        </mxCell>
        <mxCell id="NWe_6q7NGKQjCnyYTIsE-14" value="else" style="edgeLabel;html=1;align=center;verticalAlign=middle;resizable=0;points=[];" vertex="1" connectable="0" parent="NWe_6q7NGKQjCnyYTIsE-10">
          <mxGeometry x="-0.7622" y="2" relative="1" as="geometry">
            <mxPoint x="18" y="-12" as="offset" />
          </mxGeometry>
        </mxCell>
        <mxCell id="NWe_6q7NGKQjCnyYTIsE-3" value="NUMCHECK" style="ellipse;whiteSpace=wrap;html=1;" vertex="1" parent="1">
          <mxGeometry x="335" y="120" width="80" height="80" as="geometry" />
        </mxCell>
        <mxCell id="NWe_6q7NGKQjCnyYTIsE-8" style="edgeStyle=orthogonalEdgeStyle;rounded=0;orthogonalLoop=1;jettySize=auto;html=1;entryX=0.5;entryY=0;entryDx=0;entryDy=0;" edge="1" parent="1" source="NWe_6q7NGKQjCnyYTIsE-4" target="NWe_6q7NGKQjCnyYTIsE-3">
          <mxGeometry relative="1" as="geometry">
            <Array as="points">
              <mxPoint x="630" y="70" />
              <mxPoint x="375" y="70" />
            </Array>
          </mxGeometry>
        </mxCell>
        <mxCell id="NWe_6q7NGKQjCnyYTIsE-4" value="CONVERT" style="ellipse;whiteSpace=wrap;html=1;" vertex="1" parent="1">
          <mxGeometry x="595" y="120" width="80" height="80" as="geometry" />
        </mxCell>
        <mxCell id="NWe_6q7NGKQjCnyYTIsE-5" value="END" style="ellipse;whiteSpace=wrap;html=1;" vertex="1" parent="1">
          <mxGeometry x="590" y="240" width="80" height="80" as="geometry" />
        </mxCell>
      </root>
    </mxGraphModel>
  </diagram>
</mxfile>
